PathFileType	4	(X/Y/Z)	OpenSim_Sub08_EMGStiffKnee_Magnet.trc
DataRate	CameraRate	NumFrames	NumMarkers	Units	OrigDataRate	OrigDataStartFrame	OrigNumFrames
100	100	13	8	m	100	1576	6301
Frame#	Time	torso_imu_offset_imu	pelvis_imu_offset_imu	tibia_r_imu_offset_imu	femur_r_imu_offset_imu	tibia_l_imu_offset_imu	femur_l_imu_offset_imu	toes_r_imu_offset_imu	toes_l_imu_offset_imu
				X1	Y1	Z1	X2	Y2	Z2	X3	Y3	Z3	X4	Y4	Z4	X5	Y5	Z5	X6	Y6	Z6	X7	Y7	Z7	X8		Y8	Z8	

1576	15.75000000	-0.93108152	-0.19638747	0.14098407	-0.64802890	0.18151467	-0.66829378	-0.69325425	-0.46444028	0.01795552	-0.76598966	-0.35576706	0.04040991	-0.18073398	0.80609252	0.12870525	-0.80697484	0.13339007	0.21851534	-0.65079545	-0.12887289	-0.40996853	-0.83595156	0.07757224	0.17015234
1577	15.76000000	-0.93053144	-0.19890164	0.13680267	-0.64897039	0.18710833	-0.66752303	-0.68684284	-0.47118040	0.02289346	-0.75914200	-0.36610595	0.04077471	-0.20316691	0.79892039	0.14881852	-0.80657348	0.12921285	0.22056855	-0.64876619	-0.12890084	-0.41514892	-0.84779468	0.05549549	0.12607951
1578	15.77000000	-0.92640766	-0.19878437	0.14552808	-0.65464175	0.17940888	-0.66569055	-0.68186890	-0.47902583	0.02054514	-0.75936976	-0.36520798	0.03783706	-0.23539903	0.78548211	0.15896836	-0.81047361	0.11068662	0.22018301	-0.65042282	-0.13155943	-0.42327825	-0.85149426	0.03570531	0.08694578
1579	15.78000000	-0.92904299	-0.19833672	0.14335142	-0.65267008	0.18751702	-0.67309666	-0.67211407	-0.47872928	0.01793530	-0.75499155	-0.36594029	0.03184908	-0.27760589	0.77405676	0.17488654	-0.80953040	0.09408304	0.21886447	-0.64641848	-0.13669366	-0.42684384	-0.85923570	0.01427998	0.03591598
1580	15.79000000	-0.92840222	-0.19474170	0.15241477	-0.65714282	0.17844571	-0.67157290	-0.67669410	-0.48576806	0.00896715	-0.75299776	-0.36941411	0.03633400	-0.30927455	0.75350551	0.17868874	-0.81195687	0.08572683	0.22297505	-0.64875181	-0.13349378	-0.42947434	-0.85543487	-0.00042253	0.00289555
1581	15.80000000	-0.92214827	-0.19870865	0.15366671	-0.65875488	0.17702798	-0.66752334	-0.67554962	-0.49377741	0.00276476	-0.75366693	-0.36857274	0.03153498	-0.33616558	0.73685341	0.18769754	-0.81586865	0.07466073	0.21889158	-0.64841870	-0.14543956	-0.44264650	-0.84553552	-0.01581080	-0.04034240
1582	15.81000000	-0.92490939	-0.19394336	0.15222198	-0.65855797	0.17705795	-0.66983392	-0.66900282	-0.49756828	-0.00072243	-0.75655518	-0.38290512	0.03198090	-0.37193399	0.72843225	0.17410938	-0.81526192	0.06606271	0.22331878	-0.65260016	-0.14338368	-0.45177380	-0.83679597	-0.03036990	-0.08071159
1583	15.82000000	-0.92689519	-0.19506752	0.16056166	-0.65656567	0.17934799	-0.66472999	-0.66529752	-0.49973121	0.00362311	-0.74580108	-0.38438619	0.02771282	-0.40486640	0.71377780	0.16941599	-0.81519434	0.05751128	0.21895330	-0.65189431	-0.15447154	-0.44932973	-0.83359079	-0.03881525	-0.11685878
1584	15.83000000	-0.92612805	-0.20152077	0.15926564	-0.65703305	0.18076762	-0.66341275	-0.66470028	-0.50449606	-0.00101484	-0.74414391	-0.39075452	0.03060541	-0.43786393	0.68709251	0.16389359	-0.81687750	0.05146511	0.22387498	-0.65227928	-0.16188078	-0.45611388	-0.81947055	-0.04946353	-0.13317479
1585	15.84000000	-0.92234417	-0.20237695	0.17036032	-0.65831958	0.17446529	-0.66757187	-0.65592563	-0.51225495	-0.00042850	-0.74424879	-0.39025405	0.02971721	-0.47087329	0.66768641	0.15436937	-0.81236869	0.04905788	0.22591847	-0.65580508	-0.16850882	-0.46473167	-0.81097187	-0.05543802	-0.17188274
1586	15.85000000	-0.92461829	-0.19640576	0.17194952	-0.65490629	0.17775215	-0.66798386	-0.65437235	-0.51221706	-0.00037680	-0.74370280	-0.39051920	0.02308712	-0.50358768	0.64544151	0.15495635	-0.81462316	0.04284085	0.22565165	-0.65135414	-0.17813218	-0.47426333	-0.80345333	-0.05926185	-0.19829159
1587	15.86000000	-0.92494854	-0.19873915	0.17603689	-0.66107419	0.18336248	-0.67509761	-0.65201282	-0.51909107	-0.00067267	-0.74027739	-0.39515282	0.02386931	-0.53131306	0.62066929	0.16022052	-0.81443318	0.04348858	0.22646397	-0.65619852	-0.17789739	-0.47400793	-0.79048825	-0.06158337	-0.23006629
1588	15.87000000	-0.92585848	-0.19390042	0.17393622	-0.65403521	0.17875770	-0.67154414	-0.65162635	-0.52476590	-0.00440631	-0.74333013	-0.40569149	0.02366963	-0.55776614	0.59243225	0.15530992	-0.81468617	0.04799844	0.23547048	-0.65489141	-0.18479836	-0.48108198	-0.78544438	-0.07054724	-0.25843288
